<svg xmlns="http://www.w3.org/2000/svg" width="16" height="16" fill="none" viewBox="0 0 16 16">
<path  d="
    M6 3.5
    a1.5 1.5 0 1 1-3 0 1.5 1.5 0 0 1 3 0
    M5 5.95
    a2.5 2.5 0 1 0-1 0
    v4.1
    a2.5 2.5 0 1 0 1.165.04
    c.168-.38.383-.622.61-.78.327-.227.738-.32 1.214-.31
    c.387 0 .76.03 1.124.059
    c.343.027.694.055 1.003.046.313-.01.661-.06.954-.248.29-.185.466-.466.544-.812
    a.756.756 0 0 1 .046-.055
    a2.5 2.5 0 1 0-1.03-.134
    c-.028.108-.07.14-.1.16-.063.04-.191.08-.446.089
    a8.783 8.783 0 0 1-.917-.045
    A14.886 14.886 0 0 0 7.005 8
    c-.61-.013-1.249.105-1.8.488-.07.05-.14.102-.205.159
    V5.95
    m7-.45
    a1.5 1.5 0 1 1-3 0 1.5 1.5 0 0 1 3 0
    m-9 7
    a1.5 1.5 0 1 1 3 0 1.5 1.5 0 0 1-3 0
    z" fill="#cccccc"/>
</svg>
